<?xml version="1.0" encoding="utf-8"?>
<!-- Generator: Adobe Illustrator 26.5.0, SVG Export Plug-In . SVG Version: 6.00 Build 0)  -->
<svg version="1.1" id="Layer_1" xmlns="http://www.w3.org/2000/svg" xmlns:xlink="http://www.w3.org/1999/xlink" x="0px" y="0px"
	 viewBox="0 0 100.6 116.3" style="enable-background:new 0 0 100.6 116.3;" xml:space="preserve">
<g>
	<g>
		<path d="M7.4,39.1c0.5,0.2,1-0.7,1.8-1.7c0.8-1,2-2.1,3.6-1.6c1.9,0.6,2.5,2.3,1.8,4.2c-0.3,0.8-0.8,1.7-0.9,2.2
			c-0.1,0.2-0.1,0.5-0.1,0.7c-0.2,0.6-0.7,0.3-1.8,0.2C11,43,10.8,43,10.6,42.9c-0.4-0.1-0.5-0.3-0.5-0.5c0.1-0.3,0.6-0.5,1-0.7
			c0.8-0.4,1.6-1.1,1.8-2c0.1-0.4,0-0.7-0.3-0.8c-0.6-0.2-1,0.6-1.7,1.5c-0.8,1-1.8,2-3.5,1.4c-1.7-0.5-2.5-2-1.9-3.9
			c0.2-0.8,0.6-1.2,0.7-1.6c0.1-0.3,0-0.6,0.1-0.9c0.2-0.6,0.8-0.4,1.6-0.4c1,0.1,1.3,0.1,1.5,0.2c0.3,0.1,0.4,0.3,0.4,0.6
			c-0.1,0.4-0.7,0.4-1.2,0.7c-1,0.5-1.4,1.1-1.6,1.6C6.9,38.5,7,39,7.4,39.1z"/>
		<path d="M16.9,29.4c0.2,0.1,0.5,0.2,0.6-0.1c0-0.1,0.1-0.2,0.1-0.2c0.1-0.1,0.2-0.1,0.3,0c0.8,0.5,1,1.4,0.5,2.3
			c-0.4,0.7-0.9,0.9-1.3,0.9c-0.1,0-0.2,0-0.2,0.1c0,0,0,0.1,0,0.3c0.1,0.4,0.2,1.1-0.2,1.9c-0.8,1.4-1.9,1.4-3,0.7
			c-0.7-0.4-1.7-1.1-2-1.3c-0.3-0.2-0.6-0.2-0.9-0.1c-0.3,0.1-0.5,0.3-0.8,0.1c-0.2-0.1-0.3-0.4-0.1-0.8c0.6-1.3,0.6-1.8,0.8-2.1
			c0.2-0.4,0.5-0.3,0.7-0.2c0.9,0.5,1.4,1,2.7,1.7c0.9,0.5,1.4,0.5,1.7,0c0.1-0.2,0.2-0.6-0.5-1L14,30.7c-0.6-0.3-0.8-0.4-1.1-0.3
			c-0.3,0-0.5,0.2-0.8,0c-0.2-0.1-0.3-0.4-0.1-0.8c0.5-1.1,0.7-1.9,0.8-2.1c0.2-0.4,0.5-0.3,0.7-0.1c0.4,0.2,0.7,0.5,1.6,1.1
			L16.9,29.4z"/>
		<path d="M22.4,23.2c0.3,0.2,0.6,0.4,0.9,0.4c0.3,0,0.5-0.2,0.8,0.1c0.2,0.2,0.2,0.5-0.1,0.8c-0.3,0.3-0.6,0.6-0.9,0.9
			c-0.3,0.4-0.4,0.6-0.8,1c-0.2,0.3-0.5,0.2-0.7,0.1c-0.3-0.2-0.4-0.5-0.5-0.7c-0.2-0.3-1-1.2-1.7-1.8c-0.8-0.7-1.3-0.8-1.6-0.3
			c-0.2,0.2-0.3,0.6,0.3,1.1l1.4,1.2c0.5,0.4,0.7,0.6,1,0.6c0.3,0,0.5-0.1,0.8,0.1c0.2,0.2,0.3,0.4,0,0.8c-0.3,0.3-0.6,0.7-0.9,0.9
			c-0.3,0.4-0.6,0.8-1,1.2c-0.2,0.3-0.5,0.2-0.7,0.1c-0.3-0.2-0.2-0.6-0.3-0.8c-0.1-0.5-0.4-0.9-0.7-1.1l-1.5-1.3
			c-0.4-0.3-0.7-0.2-0.9-0.2c-0.2,0-0.3,0.1-0.5-0.1c-0.3-0.3,0-0.7,0.2-1.4c0.3-0.9,0.2-1.1,0.4-1.3c0.2-0.2,0.4-0.3,0.8-0.1
			c0.1,0.1,0.3,0.1,0.3,0c0.1-0.1-0.1-1.2,0.7-2.1c1-1.2,2.1-0.9,3.1-0.1C21.2,22,22,22.8,22.4,23.2z"/>
		<path d="M27.6,20.9c-0.2,0-0.3-0.1-0.4-0.1c-0.1,0-0.1,0.2-0.1,0.4c-0.1,0.4-0.2,1-0.8,1.4c-1,0.8-2.5,0.6-3.8-1.1
			c-1.4-1.9-1.4-3.6-0.2-4.5c0.8-0.6,1.4-0.4,1.4-0.5c0.1,0,0-0.1-0.3-0.5l-0.1-0.1c-0.3-0.3-0.6-0.4-0.8-0.4c-0.2,0-0.3,0-0.5-0.2
			c-0.2-0.3,0.2-0.7,0.5-1.3c0.4-0.6,0.6-1.2,0.9-1.4c0.2-0.2,0.5-0.2,0.7,0.1c0.6,0.8,0.5,0.7,1.7,2.4l2.4,3.1
			c0.1,0.2,0.4,0.3,0.6,0.1c0.1-0.1,0.1-0.1,0.2-0.2c0.1-0.1,0.2,0,0.3,0.1C30,19,29.8,20,29,20.6C28.5,21,28.1,21,27.6,20.9z
			 M25.6,18.7c-0.9-1.2-1.5-1.4-1.8-1.1c-0.3,0.2-0.4,0.8,0.5,1.9c0.9,1.1,1.5,1.3,1.9,1C26.5,20.2,26.5,19.9,25.6,18.7z"/>
		<path d="M31.4,14.3c0.1-0.1,0.1-0.3-0.2-0.7c-0.2-0.4-0.5-0.6-0.9-0.4c-0.3,0.1-0.4,0.5-0.3,1.3c0.1,0.4,0,0.8-0.4,1.1
			c-0.5,0.3-1.2,0.1-1.5-0.5c-0.4-0.8,0.1-2,1.7-2.8c1.3-0.7,3-0.9,4,0.9c0.4,0.7,0.5,1.1,0.9,1.8c0.1,0.2,0.3,0.4,0.5,0.3
			c0.1,0,0.1-0.1,0.2-0.1c0.1,0,0.2,0.1,0.3,0.2c0.4,0.8,0,1.7-0.8,2.2c-0.6,0.3-1.1,0.3-1.4,0.1c-0.1,0-0.1-0.1-0.2,0
			c-0.1,0-0.1,0.1-0.1,0.2c-0.2,0.5-0.6,1-1.2,1.3c-1,0.5-2,0.4-2.5-0.6c-0.5-0.9-0.1-1.8,0.7-2.7C30.7,14.9,31.3,14.5,31.4,14.3z
			 M32.1,15.3c-0.1,0-0.2,0.1-0.3,0.3c-0.2,0.3-0.4,0.7-0.2,1c0.1,0.2,0.3,0.4,0.6,0.2c0.5-0.2,0.4-0.7,0.2-1.1
			C32.2,15.3,32.1,15.3,32.1,15.3z"/>
		<path d="M40.3,13c-0.3,2.8-0.3,5.4-2.1,5.9c-0.8,0.2-1.6-0.1-1.8-0.9c-0.2-0.7,0.1-1.4,0.6-1.5c0.3-0.1,0.5,0,0.7,0.1
			c0.3,0.1,0.5,0.3,0.7,0.3c0.2,0,0.3-0.2,0.2-0.5c-0.1-0.4-0.9-1.2-1.6-2c-0.5-0.6-2.2-2.6-2.7-2.9c-0.3-0.2-0.5-0.3-0.6-0.6
			c-0.1-0.3,0-0.5,0.4-0.6c0.4-0.1,0.8-0.2,1.2-0.3c0.4-0.1,0.9-0.3,1.3-0.5c0.3-0.1,0.6,0,0.7,0.4c0.1,0.3-0.2,0.5,0,0.9
			c0.1,0.2,0.3,0.6,0.8,1.1c0.4,0.4,0.7,0.9,0.8,0.8c0.2-0.1,0.1-1,0.1-1.6c0-0.2,0-0.3,0-0.4c-0.2-0.6-0.7-0.7-0.9-1.1
			c-0.1-0.3,0.1-0.5,0.3-0.6c0.3-0.1,0.8-0.2,1.1-0.3c0.3-0.1,0.5-0.2,0.8-0.3c0.4-0.1,0.5,0,0.6,0.3c0.2,0.5-0.3,0.6-0.4,1.9
			C40.4,11.4,40.3,12.6,40.3,13z"/>
		<path d="M49.7,4.9c0.9,0,1.3,0.2,1.7,0.2c0.3,0,0.5-0.2,0.9-0.2c0.6,0,0.7,0.6,0.8,1.4c0.2,1,0.3,1.3,0.3,1.5
			c0,0.4-0.2,0.5-0.4,0.5c-0.4,0-0.6-0.5-1-1c-0.6-0.8-1.3-1.1-1.8-1.1c-1.2,0-1.6,1.1-1.6,2.3c0,1.8,1,3.4,2.6,3.3
			c0.9,0,1.5-0.6,1.8-1c0.2-0.2,0.3-0.4,0.4-0.4c0.2,0,0.3,0.3,0.3,0.6c0,0.5-0.1,1.1-0.4,1.5c-0.6,1-1.8,1.7-3.4,1.7
			c-2.9,0-4.4-2.2-4.4-4.6C45.3,7.4,46.6,5,49.7,4.9z"/>
		<path d="M58.3,7.9c1.8,0.3,3.2,1.9,2.8,4.2c-0.4,2.2-2.1,2.9-4,2.6c-2-0.4-3.1-2-2.7-4C54.7,8.7,56.4,7.5,58.3,7.9z M57.2,10.3
			c-0.1,0.7-0.2,1.5,0,2.1c0.1,0.4,0.2,0.7,0.6,0.8c0.3,0,0.6-0.1,0.7-0.9c0.1-0.6,0.1-1.5,0-2.1c-0.1-0.6-0.3-1-0.6-1
			C57.6,9.1,57.4,9.3,57.2,10.3z"/>
		<path d="M64.5,14.2c-0.2,0.6-0.3,0.8,0,1.3c0.1,0.3,0.5,0.5,0.4,0.9c-0.1,0.3-0.3,0.4-0.7,0.3c-0.4-0.1-0.8-0.3-1.6-0.6
			c-0.5-0.2-1-0.3-1.5-0.5c-0.3-0.1-0.4-0.4-0.3-0.6c0.1-0.3,0.4-0.4,0.6-0.5c0.5-0.3,0.6-0.7,0.7-1l0.7-2.1c0.1-0.3,0-0.5-0.2-0.6
			c-0.2-0.1-0.4-0.3-0.3-0.5c0.1-0.2,0.4-0.6,0.6-0.7c0.2-0.1,0.4,0,0.6,0c0.1,0,0.5-0.7,0.8-1c0.6-0.8,1.6-1.4,2.8-0.9
			c1,0.3,1.3,1.1,1.1,1.6c-0.2,0.5-0.6,1.2-1.3,0.9c-0.3-0.1-0.3-0.3-0.4-0.5c-0.1-0.3-0.1-0.8-0.5-0.9c-0.2-0.1-0.4,0.2-0.5,0.4
			c-0.2,0.5-0.2,1.2,0.7,1.5c0.2,0.1,0.6,0.2,0.7,0.2c0.2,0.1,0.4,0.2,0.3,0.6c-0.1,0.2-0.3,0.7-0.6,0.8c-0.1,0-0.2,0-0.3,0
			c-0.1-0.1-0.5-0.2-0.7-0.3c0,0-0.1,0-0.2,0.1L64.5,14.2z"/>
		<path d="M69.1,16.3c-0.3,0.6-0.4,0.8-0.2,1.3c0.1,0.3,0.4,0.6,0.3,0.9c-0.1,0.3-0.4,0.4-0.8,0.2c-0.4-0.2-0.7-0.4-1.5-0.8
			c-0.5-0.2-0.9-0.4-1.4-0.7c-0.3-0.2-0.3-0.4-0.2-0.6c0.2-0.3,0.5-0.4,0.7-0.5c0.5-0.3,0.7-0.6,0.9-0.9l1-1.9
			c0.2-0.3,0.1-0.5-0.1-0.7c-0.2-0.1-0.3-0.3-0.2-0.6c0.1-0.2,0.4-0.5,0.7-0.6c0.2-0.1,0.4,0,0.6,0c0.1,0,0.6-0.6,1-0.9
			c0.7-0.7,1.7-1.1,2.9-0.6c0.9,0.5,1.1,1.2,0.8,1.8c-0.2,0.5-0.8,1.1-1.4,0.7c-0.3-0.1-0.3-0.3-0.3-0.5c-0.1-0.4,0-0.8-0.4-0.9
			c-0.2-0.1-0.4,0.2-0.5,0.4c-0.2,0.5-0.4,1.1,0.5,1.6c0.2,0.1,0.5,0.2,0.7,0.3c0.2,0.1,0.4,0.2,0.2,0.6c-0.1,0.2-0.4,0.6-0.7,0.7
			c-0.1,0-0.2,0-0.3-0.1c-0.1-0.1-0.5-0.3-0.7-0.4c0,0-0.1,0-0.2,0.1L69.1,16.3z"/>
		<path d="M73.5,18.4c-0.1-0.1-0.2-0.1-0.2,0c-0.2,0.3-0.2,0.9,0.6,1.5c0.6,0.5,1.2,0.4,1.6,0.5c0.1,0,0.2,0,0.3,0.1
			c0.1,0.1,0.1,0.3-0.1,0.5c-0.6,0.8-2.2,1.2-3.7,0.1c-1.8-1.2-2-3.1-0.8-4.7s3.2-2.2,5-0.9c1.7,1.2,1.3,2.8,0.8,3.4
			c-0.3,0.4-0.7,0.5-1.1,0.4C75,19.2,73.9,18.7,73.5,18.4z M75.1,16.4c-0.4-0.3-0.9,0-1.2,0.4c-0.2,0.3-0.2,0.5,0,0.6
			c0.2,0.1,0.7,0.3,1.1,0.1c0.1-0.1,0.2-0.1,0.3-0.2C75.5,16.9,75.4,16.6,75.1,16.4z"/>
		<path d="M78.7,22.8c-0.1-0.1-0.2-0.1-0.2,0c-0.2,0.2-0.3,0.9,0.3,1.5c0.6,0.6,1.1,0.6,1.5,0.7c0.1,0,0.2,0.1,0.3,0.1
			c0.1,0.1,0.1,0.3-0.1,0.5c-0.7,0.7-2.4,0.8-3.7-0.5c-1.5-1.5-1.4-3.4-0.1-4.7c1.4-1.4,3.6-1.6,5.1-0.1c1.5,1.4,0.8,3,0.2,3.5
			c-0.4,0.4-0.8,0.4-1.2,0.2C80.1,23.9,79.1,23.1,78.7,22.8z M80.7,21.1c-0.3-0.3-0.9-0.2-1.3,0.2c-0.2,0.2-0.3,0.4-0.1,0.6
			c0.2,0.2,0.7,0.4,1.1,0.3c0.1,0,0.2-0.1,0.3-0.2C80.9,21.7,81,21.3,80.7,21.1z"/>
		<path d="M91,28.9c0.5,0.8,0.4,1.2,0.6,1.6c0.2,0.3,0.4,0.4,0.6,0.7c0.3,0.6-0.2,0.9-0.8,1.4c-0.8,0.7-1,0.9-1.1,1
			c-0.3,0.2-0.5,0.1-0.7-0.1C89.4,33,89.7,32.5,90,32c0.4-0.9,0.4-1.7,0.1-2.2c-0.6-1-1.7-0.9-2.8-0.3c-1.6,0.9-2.5,2.5-1.7,3.9
			c0.5,0.8,1.2,1,1.7,1.1c0.3,0,0.5,0.1,0.5,0.2c0.1,0.2-0.1,0.4-0.3,0.6c-0.5,0.3-1,0.4-1.6,0.4c-1.1-0.1-2.3-0.8-3.1-2.1
			c-1.4-2.5-0.2-4.9,1.9-6.1C86.8,26.2,89.5,26.2,91,28.9z"/>
		<path d="M92.5,37.9c0.6,1.8-0.1,3.7-2.4,4.5C88,43,86.5,41.9,85.9,40c-0.6-2,0.3-3.7,2.2-4.3C90.1,35.1,91.9,36,92.5,37.9z
			 M89.9,38c-0.6,0.2-1.4,0.6-1.9,1c-0.3,0.3-0.5,0.6-0.4,0.9c0.1,0.3,0.4,0.5,1.1,0.2c0.6-0.2,1.4-0.6,1.9-1c0.5-0.4,0.7-0.8,0.6-1
			C91.1,37.9,90.9,37.7,89.9,38z"/>
		<path d="M87.2,45c-0.1-0.7,0.2-1.3,1-1.5c0.9-0.2,1.5,0.5,1.7,1.2c0.1,0.7-0.2,1.4-1,1.5C88,46.3,87.4,45.7,87.2,45z"/>
	</g>
	<g>
		<path d="M15.1,73.7c-1.1,0.1-1,3.1-2.9,3.2c-1.3,0.1-2.2-1.1-2.4-2.6c-0.1-0.9,0.2-1.9,0.7-2.3c0.2-0.1,0.4-0.2,0.7-0.3
			c0.6-0.1,1,0.1,1,0.4c0,0.2-0.2,0.3-0.4,0.4c-0.7,0.4-1.2,1-1.1,1.8c0.1,0.6,0.5,0.9,0.9,0.9c1.2-0.1,1-2.9,2.9-3.1
			c1.2-0.1,2.1,1,2.2,2.2c0.1,0.7-0.1,1.1-0.1,1.4c0,0.2,0.1,0.3,0.1,0.5c0,0.4-0.3,0.3-0.9,0.4c-0.5,0.1-0.8,0.1-0.9,0.2
			c-0.2,0-0.4-0.1-0.4-0.3c0-0.2,0.2-0.3,0.5-0.6c0.6-0.4,0.8-1,0.8-1.5C15.9,74,15.5,73.7,15.1,73.7z"/>
		<path d="M16.6,79.3c-0.2,0-0.9,0-0.9,0c0,0,0,0,0,0c0,0.1,0.2,0.7,0.2,0.8c0,0.2,0,0.3-0.2,0.3c-0.2,0-0.5-0.1-0.6-0.2
			c0,0-0.1-0.1-0.1-0.2c0-0.1-0.1-0.7-0.1-0.7c0-0.1-0.1-0.1-0.1-0.1c-0.3,0-1.7,0-2.2,0.1c-0.4,0.1-0.6,0.3-0.5,0.5
			c0.1,0.3,0.4,0.5,0.5,0.6c0.1,0,0.2,0.1,0.2,0.1c0,0.1,0,0.1-0.2,0.2c-0.1,0-0.4,0-0.5-0.1c-0.4-0.1-1.1-0.5-1.3-1.3
			c-0.2-0.7,0.2-1.2,1-1.4c0.9-0.2,2.4-0.1,2.6-0.1c0.1,0,0.2-0.1,0.2-0.2c0-0.2,0-0.4,0.1-0.4c0.2,0,0.3,0,0.5,0.2
			c0.1,0.2,0.2,0.3,0.3,0.5c0.1,0.1,0.6,0.1,0.8,0.2c0.4,0.2,0.6,0.6,0.6,0.8C16.9,79.1,16.9,79.3,16.6,79.3z"/>
		<path d="M16.6,84.1c0,0.1,0.9,0.4,1,0.7c0,0.1,0,0.2-0.2,0.3c-0.1,0-0.5,0-0.9,0.1c-0.8,0.1-1.9,0.3-2.4,0.4
			c-0.2,0.1-0.3,0.2-0.3,0.3c0.1,0.2,0.3,0.2,0.4,0.3c0,0,0,0.1-0.1,0.2c-0.4,0.1-1.2,0-1.4-0.8c-0.1-0.4,0.1-0.8,0.4-1
			c0.1,0,0.1-0.1,0.1-0.1c0,0-0.1,0-0.2-0.1c-0.4-0.2-0.9-0.5-1.1-1.1c-0.3-0.8,0.2-1.6,1.2-2c1.8-0.7,3.4,0,3.8,1.1
			C17.2,83.5,16.6,84,16.6,84.1z M13.8,82.8c-0.7,0.2-0.9,0.6-0.8,1c0.2,0.5,1.2,0.7,2.5,0.3c0.7-0.3,0.9-0.6,0.8-0.9
			C16.1,82.6,15,82.3,13.8,82.8z"/>
		<path d="M18.7,87.3c-0.4,0.2-1.2,0.3-1.4,0.4c0,0,0,0,0,0c0.1,0.1,1.9-0.2,2.4,0.9c0.1,0.3,0.1,0.7-0.4,1
			c-0.6,0.3-1.4,0.2-1.6-0.3c-0.1-0.2,0-0.3,0.3-0.5c0.2-0.1,0.2-0.2,0.2-0.3c-0.1-0.3-1.4-0.4-2.5,0c-0.2,0.1-0.6,0.2-0.8,0.3
			c-0.2,0.1-0.4,0.1-0.6,0.1c-0.2-0.1-0.5-0.5-0.7-0.9c-0.1-0.2,0-0.3,0.1-0.4c0.2-0.1,0.6-0.1,1.1-0.3c0.7-0.2,1.8-0.5,2-0.7
			c0.2-0.1,0.3-0.3,0.3-0.4c0-0.1,0-0.2,0.1-0.3c0.2-0.1,0.4,0,0.8,0.4c0.4,0.3,0.6,0.5,0.7,0.7C18.9,87.1,18.9,87.3,18.7,87.3z"/>
		<path d="M22.2,90.9c-0.2,0.1-0.8,0.3-0.9,0.3c0,0,0,0,0,0.1c0.1,0.1,0.4,0.6,0.5,0.7c0.1,0.2,0.1,0.3,0,0.4
			c-0.2,0.1-0.5,0.1-0.7,0.1c0,0-0.1,0-0.2-0.1c-0.1-0.1-0.3-0.6-0.4-0.6c0-0.1-0.1-0.1-0.1-0.1c-0.3,0.1-1.6,0.6-2,0.9
			c-0.4,0.2-0.5,0.5-0.3,0.7c0.2,0.2,0.5,0.3,0.7,0.3c0.1,0,0.2,0,0.2,0.1c0,0.1,0,0.1-0.1,0.2c-0.1,0.1-0.3,0.1-0.5,0.1
			c-0.5,0-1.2-0.1-1.6-0.7c-0.4-0.6-0.3-1.2,0.4-1.7c0.7-0.5,2.2-0.9,2.4-1.1c0.1-0.1,0.1-0.1,0.1-0.2c-0.1-0.2-0.2-0.4,0-0.5
			c0.2-0.1,0.3-0.1,0.5,0c0.2,0.1,0.3,0.2,0.5,0.3c0.1,0,0.6-0.2,0.8-0.1c0.4,0.1,0.7,0.3,0.9,0.5C22.4,90.6,22.4,90.7,22.2,90.9z"
			/>
		<path d="M25.7,97.7c-0.8,0.8-2.3-0.1-3.1-0.7c-0.1-0.1-0.1-0.1-0.2,0c-0.2,0.2-0.4,0.8,0,1.3c0.5,0.5,1.2,0.5,1.5,0.5
			c0.1,0,0.2,0,0.2,0.1c0.1,0.1,0,0.1,0,0.2c-0.4,0.4-1.9,0.7-2.9-0.4c-0.9-0.9-0.8-2,0.1-2.8c1.1-1.1,3-1.2,4.2-0.1
			C26.2,96.5,26.1,97.3,25.7,97.7z M23.1,96.3c-0.1,0.1-0.1,0.2-0.1,0.2c0.3,0.3,1.3,0.8,1.8,0.3c0.2-0.2,0.3-0.5,0-0.7
			C24.4,95.7,23.5,95.9,23.1,96.3z"/>
		<path d="M28.2,98.5c-0.1,0.2-0.8,0.7-1.4,1.3c-0.3,0.3-0.6,0.6-0.8,0.9c-0.4,0.5-0.3,0.8-0.2,0.9c0.5,0.4,2-0.3,2.5-1
			c0.2-0.2,0.2-0.4,0.2-0.6c0-0.2-0.1-0.3,0-0.4c0.2-0.3,0.8-0.4,1.2-0.1c0.5,0.4,0.3,0.8,0,1.2c-0.7,0.9-3.6,2.4-5,1.3
			c-0.5-0.4-0.7-1.1,0-2c0.2-0.3,0.5-0.6,0.8-0.9c0.2-0.2,0.5-0.5,0.6-0.6c0.1-0.2,0.1-0.3,0-0.5c-0.1-0.1-0.1-0.2,0-0.3
			c0.1-0.2,0.4-0.1,0.8,0c0.5,0.1,0.9,0.4,1.1,0.5C28.4,98.3,28.3,98.4,28.2,98.5z"/>
		<path d="M33.8,103.2c-0.6,1-2.2,0.5-3.1,0.1c-0.1,0-0.1,0-0.2,0.1c-0.2,0.3-0.2,0.8,0.4,1.2c0.6,0.4,1.2,0.1,1.6,0
			c0.1,0,0.2,0,0.2,0c0.1,0,0.1,0.1,0,0.2c-0.3,0.5-1.6,1.1-2.9,0.4c-1.1-0.6-1.3-1.7-0.7-2.7c0.8-1.3,2.6-2,4-1.2
			C34,101.9,34.1,102.7,33.8,103.2z M30.9,102.5c-0.1,0.1-0.1,0.2,0,0.3c0.4,0.2,1.4,0.5,1.8-0.2c0.2-0.3,0.1-0.6-0.2-0.7
			C32,101.6,31.2,102,30.9,102.5z"/>
		<path d="M36.4,103.3c-0.2,0.4-0.7,1-0.8,1.2c0,0,0,0.1,0,0.1c0.1,0.1,1.3-1.3,2.4-0.8c0.3,0.1,0.5,0.5,0.3,1
			c-0.3,0.6-0.9,1-1.4,0.8c-0.2-0.1-0.2-0.3-0.1-0.6c0.1-0.2,0.1-0.3,0-0.4c-0.3-0.1-1.4,0.6-2,1.6c-0.1,0.2-0.3,0.5-0.4,0.7
			c-0.1,0.2-0.2,0.4-0.4,0.4c-0.2,0-0.7-0.1-1.1-0.3c-0.3-0.1-0.2-0.2-0.2-0.4c0.1-0.2,0.4-0.5,0.7-0.9c0.4-0.6,1-1.5,1.2-1.8
			c0.1-0.3,0-0.4,0-0.5c-0.1-0.1-0.1-0.2-0.1-0.3c0.1-0.2,0.3-0.2,0.9-0.2c0.5,0,0.8,0,0.9,0.1C36.5,103,36.5,103.1,36.4,103.3z"/>
		<path d="M40.8,104.8c-0.1,0.4-1.2,1.8-1.5,2.7c-0.2,0.7,0.2,0.8,0.3,0.9c0.7,0.2,1.7-0.9,1.9-1.8c0.1-0.3,0-0.5,0-0.7
			c-0.1-0.2-0.2-0.2-0.2-0.4c0.1-0.4,0.6-0.6,1.1-0.5c0.6,0.2,0.6,0.7,0.5,1.4c-0.3,0.9-1.1,2.3-1.9,3.2c-1,1.1-2.1,1.8-3.3,1.5
			c-0.6-0.2-1.1-0.7-0.9-1.3c0.1-0.4,0.5-0.6,0.8-0.6c0.1,0,0.1,0.2,0.2,0.3c0.1,0.3,0.3,0.5,0.6,0.5c1,0.3,2-0.8,2-1.1
			c0,0,0-0.1,0-0.1c-0.1,0-0.7,0.5-1.5,0.3c-0.6-0.2-1.2-0.7-0.9-1.8c0.2-0.8,0.9-1.6,0.9-1.9c0.1-0.2,0-0.3-0.1-0.4
			c-0.1-0.1-0.2-0.2-0.1-0.3c0.1-0.2,0.3-0.3,0.7-0.3c0.5-0.1,1.1,0,1.3,0.1C40.8,104.5,40.8,104.7,40.8,104.8z"/>
		<path d="M47.8,105.9c0,0.4-0.3,1.2-0.3,1.4c0,0,0,0.1,0,0.1c0.1,0,0.8-1.7,2-1.7c0.6,0,0.9,0.4,0.9,1.2c0,0.1,0,0.2,0,0.2
			c0,0,0,0.1,0,0.1c0.1,0,0.1-0.1,0.2-0.3c0.3-0.5,0.9-1.1,1.6-1.1c0.6,0,1,0.4,1,1.2c0,0.8-0.6,1.9-0.6,2.5c0,0.2,0,0.3,0.2,0.3
			c0.2,0,0.2-0.3,0.4-0.3c0.1,0,0.1,0,0.1,0.2c0,0.5-0.5,1.1-1.3,1.1c-0.5,0-0.9-0.3-0.9-1c0-0.8,0.6-1.8,0.6-2.4
			c0-0.3-0.1-0.5-0.3-0.5c-0.5,0-1.1,1.2-1.3,2.3c-0.1,0.3-0.1,0.7-0.1,0.8c0,0.2-0.1,0.4-0.2,0.5c-0.2,0.1-0.7,0.2-1.1,0.2
			c-0.3,0-0.3-0.1-0.3-0.3c0-0.2,0.1-0.5,0.3-1.1c0.2-0.7,0.4-1.7,0.4-2c0-0.3-0.1-0.5-0.3-0.5c-0.5,0-1.1,1.2-1.3,2.2
			c-0.1,0.3-0.1,0.7-0.1,0.8c0,0.2-0.1,0.4-0.2,0.5c-0.2,0.1-0.7,0.2-1.1,0.2c-0.3,0-0.3-0.1-0.3-0.3c0-0.2,0.2-0.6,0.3-1.1
			c0.2-0.7,0.4-1.8,0.4-2.1c0-0.3-0.1-0.4-0.2-0.4c-0.1,0-0.2-0.1-0.2-0.2c0-0.2,0.2-0.4,0.7-0.5c0.5-0.2,0.7-0.3,0.9-0.3
			C47.7,105.7,47.8,105.8,47.8,105.9z"/>
		<path d="M58.7,106.9c0.3,1.9-0.8,3.1-2.1,3.3c-1.2,0.2-2.1-0.5-2.3-1.7c-0.3-1.7,0.7-3.2,2.1-3.4
			C57.4,104.9,58.5,105.5,58.7,106.9z M55.7,108.3c0.1,0.7,0.5,1.1,0.9,1c0.6-0.1,0.9-1.1,0.7-2.3c-0.1-0.8-0.5-1.2-0.9-1.2
			C55.9,105.9,55.5,107.1,55.7,108.3z"/>
		<path d="M60.7,104.3c0.1,0.4,0.1,1.2,0.1,1.4c0,0,0,0,0,0c0.1,0,0.2-1.8,1.3-2.2c0.3-0.1,0.7,0,0.9,0.6c0.2,0.6-0.1,1.4-0.6,1.5
			c-0.2,0.1-0.3-0.1-0.4-0.4c-0.1-0.2-0.2-0.3-0.3-0.3c-0.3,0.1-0.7,1.3-0.5,2.5c0,0.3,0.1,0.6,0.2,0.8c0.1,0.2,0.1,0.4,0,0.6
			c-0.1,0.2-0.6,0.4-1,0.5c-0.3,0.1-0.3,0-0.4-0.2c-0.1-0.2,0-0.6-0.1-1.2c-0.1-0.8-0.2-1.8-0.3-2.1c-0.1-0.3-0.2-0.3-0.3-0.3
			c-0.1,0-0.2-0.1-0.2-0.2c-0.1-0.2,0.1-0.4,0.5-0.7c0.4-0.3,0.6-0.5,0.8-0.5C60.5,104.1,60.6,104.2,60.7,104.3z"/>
		<path d="M64.8,102.7c0.2,0.4,0.3,1.2,0.3,1.4c0,0,0,0.1,0.1,0c0.1,0,0-1.9,1.2-2.5c0.5-0.3,1.1-0.1,1.5,0.6c0.3,0.7,0.3,2,0.5,2.5
			c0.1,0.1,0.2,0.3,0.3,0.2c0.2-0.1,0.1-0.4,0.2-0.4c0,0,0.1,0,0.2,0.1c0.2,0.4,0,1.2-0.7,1.5c-0.5,0.2-1,0.1-1.2-0.5
			c-0.3-0.7-0.3-1.9-0.5-2.4c-0.1-0.3-0.3-0.4-0.6-0.3c-0.5,0.2-0.6,1.7-0.3,2.7c0.1,0.3,0.2,0.6,0.3,0.8c0.1,0.2,0.1,0.4,0,0.6
			c-0.1,0.2-0.5,0.5-0.9,0.7c-0.3,0.1-0.4,0-0.4-0.1c-0.1-0.2-0.1-0.6-0.2-1.2c-0.2-0.7-0.4-1.8-0.6-2.1c-0.1-0.3-0.3-0.3-0.4-0.3
			c-0.1,0-0.2,0-0.3-0.1c-0.1-0.2,0-0.4,0.4-0.8c0.4-0.4,0.5-0.6,0.7-0.6C64.6,102.5,64.7,102.6,64.8,102.7z"/>
		<path d="M69.3,98.2c0.3,0.5,0,1.1-0.4,1.4c-0.4,0.2-0.7,0.1-0.9-0.2c-0.3-0.4-0.1-1.1,0.4-1.4C68.7,97.8,69.1,97.9,69.3,98.2z
			 M69.9,99.8c0.3,0.4,0.7,2.4,1.1,3.2c0.2,0.3,0.4,0.3,0.5,0.3c0.2-0.1,0.1-0.4,0.2-0.4c0,0,0.1,0,0.2,0.1c0.2,0.4,0.3,1.1-0.4,1.5
			c-0.5,0.3-1.1,0.2-1.5-0.5c-0.4-0.7-0.7-2-0.9-2.3c-0.1-0.1-0.2-0.2-0.4-0.2c-0.1,0-0.2,0-0.3-0.1c-0.1-0.2,0-0.5,0.3-0.8
			c0.3-0.4,0.6-0.7,0.8-0.8C69.6,99.7,69.8,99.7,69.9,99.8z"/>
		<path d="M71.9,98.3c0.3,0.3,0.6,1.1,0.7,1.2c0,0,0,0,0.1,0c0.1-0.1-0.4-1.9,0.6-2.7c0.5-0.4,1.1-0.4,1.6,0.3
			c0.5,0.6,0.7,1.8,1.1,2.3c0.1,0.1,0.2,0.2,0.4,0.1c0.1-0.1,0-0.4,0.1-0.4c0,0,0.1,0,0.2,0.1c0.3,0.3,0.3,1.2-0.3,1.7
			c-0.4,0.3-0.9,0.3-1.3-0.2c-0.5-0.6-0.7-1.8-1.1-2.2c-0.2-0.3-0.4-0.3-0.6-0.2c-0.4,0.4-0.2,1.8,0.3,2.7c0.1,0.2,0.3,0.5,0.5,0.7
			c0.1,0.2,0.2,0.4,0.2,0.6c-0.1,0.2-0.4,0.6-0.7,0.9c-0.2,0.2-0.3,0.1-0.4,0c-0.1-0.1-0.2-0.5-0.5-1.1c-0.4-0.7-0.9-1.6-1-1.9
			c-0.2-0.2-0.3-0.2-0.4-0.2c-0.1,0-0.2,0-0.3-0.1c-0.1-0.2-0.1-0.4,0.2-0.9c0.3-0.5,0.4-0.7,0.5-0.8C71.7,98.1,71.8,98.2,71.9,98.3
			z"/>
		<path d="M77.1,93.1c0.5-0.5,0.4-0.7,0.5-0.9c0.1-0.1,0.2-0.1,0.3,0c0.1,0.1,0.3,0.3,0.3,0.5c0,0.1,0.1,0.3-0.1,0.5
			c-0.1,0.2-0.3,0.2-0.4,0.3c0,0,0,0,0,0.1c0,0,0.3,0.1,0.5,0.3c0.8,0.7,0.7,1.9-0.1,2.7c-0.1,0.1-0.3,0.3-0.4,0.3
			c-0.1,0.1-0.2,0.3-0.1,0.5c0.4,0.4,2-2.3,3.4-1.1c0.9,0.8,0.3,2.3-0.5,3.1c-0.9,1-1.8,1.3-2.4,0.8c-0.3-0.3-0.3-0.8-0.1-1.1
			c0.2-0.2,0.4-0.2,0.5-0.2c0.1,0.1,0.1,0.2,0.2,0.4c0.4,0.3,0.9,0.2,1.5-0.5c0.4-0.5,0.4-0.9,0.2-1.1c-0.7-0.7-2.2,1.8-3.2,0.8
			c-0.2-0.2-0.4-0.7-0.2-1.2c0,0,0-0.1,0-0.1c0,0-0.1,0-0.1,0c-0.4,0-0.8,0-1.2-0.4c-0.9-0.8-0.7-2,0.1-2.8
			C76.4,93.7,76.9,93.4,77.1,93.1z M76.7,96c0.4,0.4,0.7,0.3,0.9,0.1c0.3-0.3,0.3-0.9-0.2-1.3c-0.3-0.3-0.7-0.4-1-0.1
			C76.1,95,76.3,95.6,76.7,96z"/>
		<path d="M80.3,88.8c0.4,0.2,0.9,0.9,1,1c0,0,0,0,0.1,0c0.1-0.1-1.1-1.5-0.5-2.5c0.2-0.3,0.5-0.5,1-0.2c0.5,0.3,0.8,1.1,0.6,1.5
			c-0.1,0.2-0.3,0.2-0.6,0c-0.2-0.1-0.3-0.1-0.4,0c-0.2,0.3,0.4,1.4,1.2,2.2c0.2,0.2,0.5,0.4,0.7,0.5c0.2,0.1,0.3,0.3,0.3,0.5
			c0,0.2-0.2,0.7-0.4,1.1C83.2,93,83.1,93,83,92.9c-0.2-0.1-0.4-0.4-0.8-0.8c-0.6-0.5-1.4-1.3-1.6-1.4c-0.2-0.1-0.4-0.1-0.5,0
			c-0.1,0-0.2,0.1-0.3,0c-0.2-0.1-0.2-0.4-0.1-0.9c0.1-0.5,0.2-0.8,0.2-0.9C80,88.7,80.1,88.7,80.3,88.8z"/>
		<path d="M81.1,83.6c0.5,0.2,0.6,0.9,0.4,1.4c-0.2,0.4-0.5,0.5-0.8,0.3c-0.5-0.2-0.7-0.9-0.5-1.4C80.4,83.6,80.7,83.4,81.1,83.6z
			 M82.4,84.6c0.4,0.2,1.8,1.7,2.6,2.1c0.3,0.2,0.5,0.1,0.5,0c0.1-0.2-0.1-0.4-0.1-0.5c0,0,0.1-0.1,0.2,0c0.4,0.2,0.8,0.8,0.5,1.5
			c-0.3,0.5-0.8,0.7-1.5,0.4c-0.7-0.4-1.7-1.3-2-1.5c-0.1-0.1-0.3-0.1-0.4,0c-0.1,0.1-0.2,0.1-0.3,0.1c-0.2-0.1-0.3-0.4-0.2-0.9
			c0.1-0.6,0.1-0.9,0.2-1.1C82.1,84.6,82.3,84.6,82.4,84.6z"/>
		<path d="M83.9,80.5c0.2-0.7,0.1-0.8,0.2-1c0-0.1,0.1-0.1,0.3-0.1c0.1,0,0.4,0.2,0.5,0.3c0.1,0.1,0.2,0.3,0.1,0.5
			c-0.1,0.2-0.2,0.4-0.2,0.4c0,0,0,0,0,0.1c0.1,0,0.3,0,0.6,0.1c1,0.4,1.4,1.5,1,2.6c-0.1,0.2-0.2,0.3-0.2,0.5
			C86,84,86,84.2,86.2,84.3c0.5,0.2,0.9-2.9,2.7-2.3c1.2,0.4,1.2,2,0.8,3.1c-0.4,1.2-1.2,1.9-1.9,1.7c-0.4-0.2-0.6-0.6-0.5-1
			c0.1-0.2,0.3-0.4,0.4-0.3c0.1,0,0.2,0.2,0.4,0.3c0.5,0.2,0.9-0.2,1.2-1.1c0.2-0.6,0-1-0.3-1.1c-0.9-0.3-1.3,2.5-2.6,2
			c-0.3-0.1-0.6-0.5-0.6-1c0,0,0-0.1,0-0.1c0,0-0.1,0-0.1,0c-0.3,0.2-0.8,0.3-1.2,0.1C83,84.2,82.8,83,83.1,82
			C83.4,81.4,83.7,80.9,83.9,80.5z M84.6,83.3c0.5,0.2,0.8,0,0.9-0.3c0.1-0.4-0.1-0.9-0.8-1.1c-0.4-0.1-0.8-0.1-0.9,0.3
			C83.7,82.6,84.1,83.1,84.6,83.3z"/>
		<path d="M82.6,76.8c0.4,0.1,2.9,1.2,3.1,1.2c0.1,0,0.1,0,0.1,0c0-0.1-1.3-1-1.1-2.2c0.1-0.6,0.6-1,1.4-0.8
			c0.8,0.2,1.8,0.9,2.3,1.1c0.2,0,0.3,0,0.4-0.1c0-0.2-0.2-0.3-0.2-0.4c0-0.1,0.1-0.1,0.2-0.1c0.4,0.1,1,0.7,0.8,1.5
			c-0.1,0.5-0.5,0.8-1.1,0.7c-0.8-0.2-1.7-0.9-2.2-1c-0.3-0.1-0.5,0-0.6,0.3c-0.1,0.5,1,1.5,2,1.8c0.2,0.1,0.6,0.2,0.8,0.2
			c0.2,0,0.4,0.1,0.5,0.3c0.1,0.2,0.1,0.7,0,1.1c-0.1,0.3-0.2,0.3-0.3,0.3c-0.2,0-0.6-0.3-1.1-0.5c-0.9-0.4-3.5-1.4-3.9-1.5
			c-0.2,0-0.4,0-0.4,0.1c-0.1,0.1-0.1,0.2-0.3,0.1c-0.2,0-0.3-0.3-0.4-0.8c-0.1-0.6-0.1-0.9-0.1-1.1C82.4,76.8,82.5,76.7,82.6,76.8z
			"/>
		<path d="M84.3,71.7c0.2,0,0.8,0.3,0.9,0.3c0,0,0,0,0,0c0-0.1,0-0.7,0-0.8c0-0.2,0.1-0.3,0.3-0.3c0.2,0,0.5,0.2,0.6,0.3
			c0,0,0.1,0.1,0,0.2c0,0.1-0.1,0.7-0.1,0.7c0,0.1,0,0.1,0.1,0.1c0.2,0.1,1.6,0.5,2.1,0.5c0.4,0,0.7-0.1,0.7-0.4
			c0-0.3-0.2-0.6-0.4-0.7c-0.1-0.1-0.1-0.1-0.1-0.2c0-0.1,0.1-0.1,0.2-0.1c0.1,0,0.3,0.1,0.5,0.2c0.4,0.2,0.9,0.8,0.8,1.6
			c-0.1,0.7-0.6,1.1-1.4,1.1c-0.9-0.1-2.3-0.6-2.5-0.6c-0.1,0-0.2,0-0.2,0.1c0,0.2-0.1,0.4-0.3,0.4c-0.2,0-0.3-0.1-0.4-0.3
			c-0.1-0.2-0.1-0.4-0.2-0.5c-0.1-0.1-0.6-0.2-0.7-0.4c-0.3-0.3-0.4-0.7-0.4-1C84,71.8,84.1,71.7,84.3,71.7z"/>
	</g>
	<g>
		<g>
			<path d="M50.2,96.5c-3.9,0-7.7-0.8-11.3-2.3c-3.4-1.5-6.5-3.5-9.2-6.2c-2.7-2.7-4.7-5.7-6.2-9.2c-1.5-3.6-2.3-7.4-2.3-11.3V49.9
				c0-3.9,0.8-7.7,2.3-11.3c1.5-3.4,3.5-6.5,6.2-9.2c2.7-2.7,5.7-4.7,9.2-6.2c3.6-1.5,7.4-2.3,11.3-2.3s7.7,0.8,11.3,2.3
				c3.4,1.5,6.5,3.5,9.2,6.2c2.7,2.7,4.7,5.7,6.2,9.2c1.5,3.6,2.3,7.4,2.3,11.3v17.6c0,3.9-0.8,7.7-2.3,11.3
				c-1.5,3.4-3.5,6.5-6.2,9.2c-2.7,2.7-5.7,4.7-9.2,6.2C57.9,95.7,54.1,96.5,50.2,96.5z M50.2,21.9c-3.8,0-7.4,0.7-10.9,2.2
				c-3.3,1.4-6.3,3.4-8.9,6c-2.6,2.6-4.6,5.6-6,8.9c-1.5,3.5-2.2,7.1-2.2,10.9v17.6c0,3.8,0.7,7.4,2.2,10.9c1.4,3.3,3.4,6.3,6,8.9
				c2.6,2.6,5.6,4.6,8.9,6c3.5,1.5,7.1,2.2,10.9,2.2c3.8,0,7.4-0.7,10.9-2.2c3.3-1.4,6.3-3.4,8.9-6c2.6-2.6,4.6-5.6,6-8.9
				c1.5-3.5,2.2-7.1,2.2-10.9V49.9c0-3.8-0.7-7.4-2.2-10.9c-1.4-3.3-3.4-6.3-6-8.9c-2.6-2.6-5.6-4.6-8.9-6
				C57.7,22.6,54,21.9,50.2,21.9z"/>
		</g>
		<g>
			<path d="M50.2,93.6c-3.5,0-6.9-0.7-10.1-2c-3.1-1.3-5.9-3.2-8.3-5.6c-2.4-2.4-4.3-5.2-5.6-8.3c-1.4-3.2-2-6.6-2-10.1V49.9
				c0-3.5,0.7-6.9,2-10.1c1.3-3.1,3.2-5.9,5.6-8.3c2.4-2.4,5.2-4.3,8.3-5.6c3.2-1.4,6.6-2,10.1-2c3.5,0,6.9,0.7,10.1,2
				c3.1,1.3,5.9,3.2,8.3,5.6c2.4,2.4,4.3,5.2,5.6,8.3c1.4,3.2,2,6.6,2,10.1v17.6c0,3.5-0.7,6.9-2,10.1c-1.3,3.1-3.2,5.9-5.6,8.3
				c-2.4,2.4-5.2,4.3-8.3,5.6C57.1,92.9,53.7,93.6,50.2,93.6z M50.2,25.7C36.9,25.7,26,36.6,26,49.9v17.6
				c0,13.4,10.9,24.2,24.2,24.2h0c13.4,0,24.2-10.9,24.2-24.2V49.9C74.4,36.6,63.6,25.7,50.2,25.7z"/>
		</g>
		<g>
			<path d="M67.6,78.2c-1.5,0-3.1-0.1-4.7-0.3c-1.7-0.2-3.5-0.5-5.6-1c-1.9-0.4-3.8-0.9-6.1-1.4c-0.4-0.1-0.8-0.2-1.2-0.3
				c-8.2-2.1-16.7-4.2-24.4-3.1l-0.2-1.5c8-1.2,16.6,1,25,3.1c0.4,0.1,0.8,0.2,1.2,0.3c2.3,0.6,4.2,1,6,1.4c2.1,0.5,3.9,0.8,5.5,1
				c4.2,0.5,7.6,0.4,10.4-0.5l0.4,1.4C72,78,69.9,78.2,67.6,78.2z"/>
		</g>
		<g>
			<path d="M62.9,85.1c-1,0-2-0.1-3-0.2c-3.5-0.5-6.9-1.6-10.6-2.8c-6.6-2.2-13.5-4.4-21.7-3.2l-0.2-1.5c3.8-0.6,7.8-0.4,12,0.4
				c3.7,0.7,7.1,1.8,10.4,2.9c7.3,2.4,13.5,4.4,20.2,1.4l0.6,1.4C68.1,84.6,65.6,85.1,62.9,85.1z"/>
		</g>
		<g>
			<path d="M61.7,89.8c-2.9,0-6.2-0.8-10-1.6c-5.8-1.3-12.3-2.8-18.8-1.8l-0.2-1.5c6.8-1.1,13.5,0.4,19.4,1.8
				c4.5,1,8.3,1.9,11.3,1.5l0.2,1.5C62.9,89.7,62.3,89.8,61.7,89.8z"/>
		</g>
		<g>
			<path d="M51.8,75.2l-1.1-1c3.2-3.2,6.8-5.8,10.8-7.5c4.1-1.8,8.7-2.9,13.7-3.3l0.1,1.5C65.9,65.5,58,69,51.8,75.2z"/>
		</g>
		<g>
			<path d="M57.9,76.7l-1.1-1c2.3-2.7,4.9-4.8,7.9-6.3c3.1-1.6,6.7-2.5,10.6-2.8l0.1,1.5C68.1,68.6,62.4,71.4,57.9,76.7z"/>
		</g>
		<g>
			<path d="M63.5,77.6l-1.1-1c1.8-2.1,3.6-3.7,5.7-4.8c2.2-1.2,4.6-1.8,7.1-1.8l0,1.5C70.7,71.6,66.9,73.6,63.5,77.6z"/>
		</g>
		<path d="M64.9,65.5c-5.2,2-9.8,5.2-11.9,7.5c0.1-0.6,0.3-1.3,0.4-1.9c0.8-3.7,1.7-7.9,0.9-12.4c-0.6-3.1-2-6.1-4.3-9
			c3.9,0.1,7.7,2,10.3,5.4C62.5,58.2,64,61.7,64.9,65.5z"/>
		<path d="M50.7,70.5c-0.3,1.3-0.6,2.7-0.8,3.9c-3.5-0.7-12.1-2.5-14.8-3c-0.1-1.1,0.2-2.7,0.2-3.6c0.4-5.6,1.9-11.9,6.7-15.4
			c0.7-0.6,1.5-1,2.3-1.4c1.3-0.6,2.9-0.2,3.8,0.9C53.3,58.7,51.9,64.7,50.7,70.5z"/>
		<g>
			<polygon points="31.1,69.3 30.2,67.8 30.8,67.8 29.8,66 30.4,66 29,63.6 27.6,66 28.2,66 27.2,67.8 27.8,67.8 26.9,69.3 
				28.7,69.3 28.7,70.6 29.3,70.6 29.3,69.3 			"/>
		</g>
		<g>
			<polygon points="34.8,69.5 34,68.2 34.5,68.2 33.7,66.7 34.2,66.7 33,64.6 31.8,66.7 32.4,66.7 31.5,68.2 32,68.2 31.2,69.5 
				32.8,69.5 32.8,70.6 33.2,70.6 33.2,69.5 			"/>
		</g>
		<g>
			<polygon points="69.7,63.4 70.4,62.1 69.9,62.1 70.8,60.7 70.2,60.7 71.4,58.6 72.6,60.7 72,60.7 72.8,62.1 72.4,62.1 73.1,63.4 
				71.6,63.4 71.6,64.4 71.2,64.4 71.2,63.4 			"/>
		</g>
		<g>
			<polygon points="66.6,63.9 67.2,62.8 66.8,62.8 67.5,61.7 67,61.7 68,60 69,61.7 68.5,61.7 69.2,62.8 68.8,62.8 69.4,63.9 
				68.2,63.9 68.2,64.7 67.8,64.7 67.8,63.9 			"/>
		</g>
		<g>
			<path d="M57.7,50.6l0.7,0.4l10.2-18.6l-1.2-0.6L57.2,50.3C57.4,50.4,57.5,50.5,57.7,50.6z"/>
			<path d="M46.9,48.6l-5.6-22L40,26.9l5.6,22C46,48.8,46.4,48.7,46.9,48.6z"/>
			<path d="M64.5,59.3c0.2,0.4,0.3,0.8,0.5,1.2l10.6-3.5l-0.4-1.2L64.5,59.3z"/>
			<path d="M54.8,49.1l5.7-22.3l-1.3-0.3l-5.7,22.2C54,48.8,54.4,49,54.8,49.1z"/>
			<path d="M63.2,56.9L75.6,49l-0.7-1.1l-12.4,7.9C62.8,56.1,63,56.5,63.2,56.9z"/>
			<path d="M61.1,53.8l12.6-13.5l-1-0.9L60.3,52.8C60.6,53.1,60.9,53.4,61.1,53.8z"/>
			<path d="M49.9,48.2c0.3,0,0.6,0,0.9,0V24.8h-1.3v23.4L49.9,48.2z"/>
			<path d="M43.1,49.9l-9.9-18.1L32,32.3l9.9,18.2C42.3,50.3,42.7,50.1,43.1,49.9z"/>
			<path d="M34.5,62.4l-9.3-0.6l-0.1,1.3l9.2,0.6C34.3,63.3,34.4,62.9,34.5,62.4z"/>
			<path d="M35.5,58.7C35.6,58.7,35.6,58.7,35.5,58.7l-10.2-3.4l-0.4,1.2l10.2,3.3C35.3,59.5,35.4,59.1,35.5,58.7z"/>
			<path d="M39.8,52.2L27.7,39.2l-1,0.9l12.1,13C39.2,52.8,39.5,52.5,39.8,52.2z"/>
			<path d="M37.3,55.2l-11.8-7.5l-0.7,1.1l11.8,7.6C36.8,55.9,37.1,55.6,37.3,55.2z"/>
		</g>
	</g>
	<g>
		<path d="M7.5,56.3c0,0.2,0,0.3-0.2,0.3c-0.1,0-0.2-0.1-0.2-0.2C7,56.1,7,56,6.5,56c-0.1,0-0.2,0.1-0.2,0.3v0.7
			c0,0.5,0.2,0.5,0.6,0.5c0.8,0,1-0.2,1.3-0.8c0.1-0.1,0.1-0.2,0.2-0.2c0.1,0,0.2,0.1,0.2,0.3c0,0.2-0.1,0.7-0.1,1.1
			c0,0.2-0.1,0.3-0.3,0.3c-0.2,0-0.8,0-1.4,0c-0.6,0-1.2,0-1.7,0c-0.2,0-0.3-0.1-0.3-0.2c0-0.2,0.3-0.2,0.4-0.6c0-0.2,0-1,0-1.7
			c0-0.5,0-1.1,0-1.3c0-0.6-0.4-0.5-0.4-0.8c0-0.1,0.1-0.2,0.3-0.2c0.4,0,0.8,0,1.6,0c0.7,0,1.1,0,1.3,0c0.2,0,0.3,0,0.4,0.4
			c0,0.2,0.1,0.4,0.1,0.7c0,0.1,0,0.3,0,0.3C8.5,55,8.4,55,8.3,55c-0.1,0-0.2-0.2-0.3-0.3c-0.3-0.5-0.4-0.7-1.1-0.7
			c-0.5,0-0.6,0.1-0.6,0.5v0.5c0,0.3,0,0.3,0.2,0.3c0.6,0,0.6-0.2,0.7-0.4c0-0.1,0.1-0.1,0.2-0.1c0.1,0,0.2,0.1,0.2,0.4V56.3z"/>
		<path d="M11.6,54.9c0.2,0.2,0.2,0.4,0.2,0.6c0,0.2-0.1,0.3-0.2,0.3s-0.2-0.1-0.3-0.2c-0.2-0.2-0.4-0.5-0.8-0.5
			c-0.3,0-0.4,0.2-0.4,0.4c0,0.3,0.3,0.4,0.8,0.5c0.6,0.2,1.1,0.4,1.1,1.2c0,0.7-0.6,1.1-1.5,1.1c-0.4,0-1-0.1-1.2-0.4
			C9.1,57.8,9,57.6,9,57.3C9,57.1,9.1,57,9.3,57c0.1,0,0.1,0.1,0.2,0.2c0.2,0.2,0.5,0.6,1,0.6c0.3,0,0.4-0.2,0.4-0.4
			c0-0.3-0.4-0.4-0.9-0.6c-0.4-0.2-0.9-0.4-0.9-1c0-0.7,0.6-1.1,1.4-1.1C10.9,54.6,11.4,54.7,11.6,54.9z"/>
		<path d="M13.7,56.7c0,0.4,0.1,0.8,0.5,0.8c0.2,0,0.3-0.1,0.4-0.2c0,0,0.1-0.1,0.1-0.1c0.1,0,0.1,0,0.1,0.2c0,0.1,0,0.2-0.1,0.3
			c-0.1,0.3-0.5,0.6-1.1,0.6c-0.7,0-1-0.5-1-1.3c0-0.3,0-1.1,0-1.5c0-0.1,0-0.2-0.2-0.2c-0.2,0-0.3-0.1-0.3-0.2c0-0.1,0-0.2,0.2-0.3
			c0.2-0.1,0.5-0.3,0.6-0.4c0.3-0.3,0.3-0.6,0.5-0.6c0.1,0,0.2,0.1,0.2,0.3c0,0.1,0,0.6,0,0.7c0,0,0,0,0,0c0.1,0,0.6,0,0.7,0
			c0.2,0,0.3,0,0.3,0.2c0,0.1-0.1,0.3-0.1,0.4c0,0-0.1,0-0.1,0c-0.1,0-0.5,0-0.6,0c0,0-0.1,0-0.1,0.1C13.7,55.6,13.7,56.4,13.7,56.7
			z"/>
		<path d="M15.8,58.3c-0.3,0-0.6-0.2-0.6-0.5c0-0.4,0.3-0.6,0.6-0.6c0.3,0,0.6,0.2,0.6,0.6C16.4,58.1,16.1,58.3,15.8,58.3z"/>
	</g>
	<g>
		<path d="M82.8,57.3c0.8,0,1.2-0.2,1.4-0.3c0.2-0.1,0.3-0.2,0.4-0.2c0.1,0,0.1,0.1,0.1,0.2c0,0.2-0.1,0.6-0.2,1
			c0,0.2-0.1,0.3-0.3,0.3c-0.2,0-0.8,0-1.5,0c-0.6,0-1.3,0-1.6,0c-0.1,0-0.2,0-0.2-0.2c0-0.1,0-0.2,0.2-0.3l0.7-0.7
			c0.7-0.7,1.3-1.3,1.3-2c0-0.5-0.4-0.8-0.8-0.8c-0.4,0-0.7,0.3-0.9,0.5c0,0.1-0.1,0.1-0.2,0.1c-0.1,0-0.1-0.1-0.1-0.2
			c0-0.5,0.5-1.3,1.6-1.3c0.8,0,1.5,0.4,1.5,1.3c0,0.9-0.7,1.5-1.4,2.1c-0.3,0.3-0.5,0.4-0.5,0.5C82.3,57.3,82.4,57.3,82.8,57.3z"/>
		<path d="M87,58.3c-1.3,0-2-1.1-2-2.3c0-1.5,0.8-2.6,2-2.6c1.2,0,2,1.1,2,2.6C89.1,57.4,88.3,58.3,87,58.3z M87.7,54.7
			C87.5,54.3,87.3,54,87,54c-0.4,0-0.8,0.5-0.8,1.7c0,0.3,0,0.9,0.2,1.3c0.2,0.4,0.5,0.6,0.8,0.6c0.5,0,0.8-0.5,0.8-1.4
			C88,55.6,87.9,55.1,87.7,54.7z"/>
		<path d="M91.4,58.3c-1.3,0-2-1.1-2-2.3c0-1.5,0.8-2.6,2-2.6c1.2,0,2,1.1,2,2.6C93.4,57.4,92.7,58.3,91.4,58.3z M92.1,54.7
			c-0.2-0.4-0.5-0.7-0.7-0.7c-0.4,0-0.8,0.5-0.8,1.7c0,0.3,0,0.9,0.2,1.3c0.2,0.4,0.5,0.6,0.8,0.6c0.5,0,0.8-0.5,0.8-1.4
			C92.3,55.6,92.3,55.1,92.1,54.7z"/>
		<path d="M95.3,54.4c-0.7,0-1,0.1-1.2,0.3c-0.1,0.1-0.2,0.2-0.3,0.2c-0.1,0-0.1-0.1-0.1-0.2c0-0.2,0.1-0.5,0.1-1
			c0-0.2,0.1-0.3,0.3-0.3c0.2,0,0.7,0,1.3,0c0.8,0,1.4,0,1.5,0c0.1,0,0.2,0.1,0.2,0.2c0,0.1-0.1,0.2-0.2,0.4c-0.2,0.3-0.7,1.1-1,1.9
			c-0.3,0.7-0.6,1.5-0.6,2.4c0,0.2-0.1,0.3-0.2,0.3c-0.3,0-0.9-0.3-0.9-0.6c0-0.9,1.1-2.4,1.8-3.3c0.1-0.1,0.1-0.1,0.1-0.2
			C96.1,54.4,95.8,54.4,95.3,54.4z"/>
	</g>
</g>
</svg>
